<?xml version="1.0" encoding="UTF-8" standalone="no"?>
<!-- Created with Inkscape (http://www.inkscape.org/) -->
<svg
   xmlns:svg="http://www.w3.org/2000/svg"
   xmlns="http://www.w3.org/2000/svg"
   version="1.0"
   width="250"
   height="40"
   viewBox="0 0 231.88 28.524"
   id="Layer_1"
   xml:space="preserve"><defs
   id="defs2208" />
<path
   d="M 29.049192,26.855797 L 29.049192,7.2687353 L 18.968117,24.801632 C 18.701494,25.248274 18.207171,25.518789 17.630137,25.518789 C 17.048237,25.518789 16.557806,25.248274 16.291183,24.801632 L 6.207189,7.2687353 L 6.207189,26.855797 C 6.207189,27.613823 5.5805276,28.195724 4.7320047,28.195724 C 3.9331086,28.195724 3.2636319,27.613823 3.2636319,26.855797 L 3.2636319,1.7796095 C 3.2636319,1.023529 3.9331086,0.44162904 4.7320047,0.44162904 C 5.3139046,0.44162904 5.8043352,0.70825206 6.0758236,1.1548943 L 17.630137,21.277148 L 29.185423,1.1548943 C 29.452046,0.70825206 29.94053,0.44162904 30.52243,0.44162904 C 31.327165,0.44162904 31.997614,1.023529 31.997614,1.7796095 L 31.997614,26.85677 C 31.997614,27.614797 31.327165,28.196696 30.52243,28.196696 C 29.67488,28.195724 29.049192,27.613823 29.049192,26.855797 z M 40.429324,27.700427 C 39.62459,27.700427 38.95414,27.123393 38.95414,26.363419 L 38.95414,2.2690671 C 38.95414,1.5139596 39.62459,0.93108663 40.429324,0.93108663 L 58.765982,0.93108663 C 59.615479,0.93108663 60.283982,1.5129865 60.283982,2.2690671 C 60.283982,3.0319593 59.614505,3.611913 58.765982,3.611913 L 41.89867,3.611913 L 41.89867,14.318676 L 56.090021,14.318676 C 56.934652,14.318676 57.603156,14.900576 57.603156,15.656657 C 57.603156,16.413711 56.934652,16.996584 56.090021,16.996584 L 41.89867,16.996584 L 41.89867,25.024467 L 58.766955,25.024467 C 59.616451,25.024467 60.284955,25.606367 60.284955,26.364393 C 60.284955,27.124366 59.615479,27.701401 58.766955,27.701401 L 40.429324,27.701401 L 40.429324,27.700427 z M 74.704006,26.855797 L 74.704006,3.611913 L 64.710508,3.611913 C 63.905773,3.611913 63.236297,3.0319593 63.236297,2.2690671 C 63.236297,1.5139596 63.905773,0.93108663 64.710508,0.93108663 L 87.596299,0.93108663 C 88.445795,0.93108663 89.114299,1.5129865 89.114299,2.2690671 C 89.114299,3.0319593 88.445795,3.611913 87.596299,3.611913 L 77.64659,3.611913 L 77.64659,26.855797 C 77.64659,27.613823 76.977113,28.195724 76.172378,28.195724 C 75.328721,28.195724 74.704006,27.613823 74.704006,26.855797 z M 112.08378,3.8347476 C 114.66925,7.4477814 114.31407,12.175961 114.31407,15.655684 L 114.31407,26.855797 C 114.31407,27.613823 113.6446,28.195724 112.83986,28.195724 C 111.99133,28.195724 111.32186,27.613823 111.32186,26.855797 L 111.32186,16.99561 L 94.458437,16.99561 L 94.458437,26.855797 C 94.458437,27.613823 93.831775,28.195724 92.983252,28.195724 C 92.183384,28.195724 91.51488,27.613823 91.51488,26.855797 L 91.51488,15.655684 C 91.51488,12.175961 91.155814,7.4468084 93.745171,3.8347476 C 95.932648,0.75593282 99.902807,0.44162904 102.89112,0.44162904 C 105.88236,0.44162904 109.8963,0.75593282 112.08378,3.8347476 z M 94.45941,14.318676 L 111.32283,14.318676 C 111.37051,10.706616 111.32283,7.670616 109.58687,5.260305 C 108.33451,3.5194707 105.92518,3.1175901 102.89112,3.1175901 C 99.902807,3.1175901 97.493463,3.5194707 96.242086,5.260305 C 94.502225,7.670616 94.45941,10.705642 94.45941,14.318676 z M 122.73119,28.195724 C 121.92742,28.195724 121.2599,27.613823 121.2599,26.855797 L 121.2599,2.2690671 C 121.2599,1.5139596 121.92742,0.93108663 122.73119,0.93108663 L 141.06979,0.93108663 C 141.91929,0.93108663 142.58876,1.5129865 142.58876,2.2690671 C 142.58876,3.0319593 141.91929,3.611913 141.06979,3.611913 L 124.20637,3.611913 L 124.20637,14.318676 L 138.39578,14.318676 C 139.24137,14.318676 139.9128,14.900576 139.9128,15.656657 C 139.9128,16.413711 139.24235,16.996584 138.39578,16.996584 L 124.20637,16.996584 L 124.20637,26.85677 C 124.20637,27.613823 123.58068,28.195724 122.73119,28.195724 z M 145.00783,15.655684 C 145.00783,12.043622 144.73828,7.1821315 147.72952,3.7423053 C 150.49404,0.4854175 155.08793,0.44162904 158.38861,0.44162904 C 161.73502,0.44162904 166.33281,0.4854175 169.09829,3.7432783 C 172.04184,7.1821315 171.77814,12.043622 171.77814,15.656657 C 171.77814,18.644003 171.86183,22.837963 169.00682,25.564524 C 165.97764,28.371851 161.51316,28.196696 158.38861,28.196696 L 155.84791,28.196696 C 154.91083,28.14707 153.97375,28.105228 153.03474,27.925208 C 151.16254,27.61577 149.33023,26.988135 147.82002,25.564524 C 144.96209,22.836989 145.00783,18.644003 145.00783,15.655684 z M 150.04934,5.3488549 C 147.90565,7.8924775 147.99323,11.418908 147.99323,15.655684 C 147.99323,19.137352 148.12848,21.944679 149.95884,23.685513 C 150.94166,24.577824 152.14437,25.07312 153.57383,25.294982 C 154.64226,25.471109 155.84888,25.517816 157.14502,25.517816 L 158.34774,25.517816 C 162.09409,25.517816 164.90627,25.517816 166.86994,23.68454 C 168.69641,21.943705 168.82777,19.136379 168.82777,15.654711 C 168.82777,11.417934 168.8774,7.8915044 166.73372,5.3478819 C 164.99288,3.3404246 162.05224,3.116617 158.39055,3.116617 C 154.73471,3.1175901 151.78628,3.3413977 150.04934,5.3488549 z M 178.23256,28.195724 C 177.42686,28.195724 176.75738,27.613823 176.75738,26.855797 L 176.75738,1.7796095 C 176.75738,1.024502 177.42686,0.44162904 178.23256,0.44162904 C 178.72104,0.44162904 179.12389,0.62067516 179.38955,0.93108663 C 185.14627,7.403993 190.85726,13.872034 196.56825,20.340075 L 196.56825,1.7796095 C 196.56825,1.024502 197.23578,0.44162904 198.08527,0.44162904 C 198.88515,0.44162904 199.55461,1.023529 199.55461,1.7796095 L 199.55461,26.85677 C 199.55461,27.614797 198.88515,28.196696 198.08527,28.196696 C 197.23578,28.196696 196.56825,27.614797 196.56825,26.85677 L 196.56825,24.67124 C 190.94873,18.290776 185.32239,11.953126 179.70482,5.6203433 L 179.70482,26.85677 C 179.7058,27.613823 179.07816,28.195724 178.23256,28.195724 z M 214.49134,26.855797 L 214.49134,3.611913 L 204.49784,3.611913 C 203.69214,3.611913 203.02267,3.0319593 203.02267,2.2690671 C 203.02267,1.5139596 203.69214,0.93108663 204.49784,0.93108663 L 227.38462,0.93108663 C 228.23411,0.93108663 228.90164,1.5129865 228.90164,2.2690671 C 228.90164,3.0319593 228.23411,3.611913 227.38462,3.611913 L 217.4349,3.611913 L 217.4349,26.855797 C 217.4349,27.613823 216.76542,28.195724 215.96556,28.195724 C 215.11606,28.195724 214.49134,27.613823 214.49134,26.855797 z "
   id="path2205" />
</svg>